<svg xmlns="http://www.w3.org/2000/svg" style="display:none">

  <symbol id="sun" viewBox="0 0 24 24" fill="none" stroke="currentColor" stroke-width="2" stroke-linecap="round" stroke-linejoin="round" class="feather feather-sun"><circle cx="12" cy="12" r="5"></circle><line x1="12" y1="1" x2="12" y2="3"></line><line x1="12" y1="21" x2="12" y2="23"></line><line x1="4.22" y1="4.22" x2="5.64" y2="5.64"></line><line x1="18.36" y1="18.36" x2="19.78" y2="19.78"></line><line x1="1" y1="12" x2="3" y2="12"></line><line x1="21" y1="12" x2="23" y2="12"></line><line x1="4.22" y1="19.78" x2="5.64" y2="18.36"></line><line x1="18.36" y1="5.64" x2="19.78" y2="4.22"></line> 
  </symbol>

  <symbol id="moon" viewBox="0 0 24 24" fill="none" stroke="currentColor" stroke-width="2" stroke-linecap="round" stroke-linejoin="round" class="feather feather-moon"><path d="M21 12.79A9 9 0 1 1 11.21 3 7 7 0 0 0 21 12.79z"></path>
  </symbol>

  <symbol id="message-square" viewBox="0 0 24 24" fill="none" stroke="currentColor" stroke-width="2" stroke-linecap="round" stroke-linejoin="round" class="feather feather-message-square"><path d="M21 15a2 2 0 0 1-2 2H7l-4 4V5a2 2 0 0 1 2-2h14a2 2 0 0 1 2 2z"></path>
  </symbol>

<symbol id="settings" viewBox="0 0 24 24" fill="none" stroke="currentColor" stroke-width="2" stroke-linecap="round" stroke-linejoin="round" class="feather feather-settings"><circle cx="12" cy="12" r="3"></circle><path d="M19.4 15a1.65 1.65 0 0 0 .33 1.82l.06.06a2 2 0 0 1 0 2.83 2 2 0 0 1-2.83 0l-.06-.06a1.65 1.65 0 0 0-1.82-.33 1.65 1.65 0 0 0-1 1.51V21a2 2 0 0 1-2 2 2 2 0 0 1-2-2v-.09A1.65 1.65 0 0 0 9 19.4a1.65 1.65 0 0 0-1.82.33l-.06.06a2 2 0 0 1-2.83 0 2 2 0 0 1 0-2.83l.06-.06a1.65 1.65 0 0 0 .33-1.82 1.65 1.65 0 0 0-1.51-1H3a2 2 0 0 1-2-2 2 2 0 0 1 2-2h.09A1.65 1.65 0 0 0 4.6 9a1.65 1.65 0 0 0-.33-1.82l-.06-.06a2 2 0 0 1 0-2.83 2 2 0 0 1 2.83 0l.06.06a1.65 1.65 0 0 0 1.82.33H9a1.65 1.65 0 0 0 1-1.51V3a2 2 0 0 1 2-2 2 2 0 0 1 2 2v.09a1.65 1.65 0 0 0 1 1.51 1.65 1.65 0 0 0 1.82-.33l.06-.06a2 2 0 0 1 2.83 0 2 2 0 0 1 0 2.83l-.06.06a1.65 1.65 0 0 0-.33 1.82V9a1.65 1.65 0 0 0 1.51 1H21a2 2 0 0 1 2 2 2 2 0 0 1-2 2h-.09a1.65 1.65 0 0 0-1.51 1z"></path></symbol>

<symbol id="thumbs-up" viewBox="0 0 24 24" fill="none" stroke="currentColor" stroke-width="2" stroke-linecap="round" stroke-linejoin="round" class="feather feather-thumbs-up"><path d="M14 9V5a3 3 0 0 0-3-3l-4 9v11h11.28a2 2 0 0 0 2-1.7l1.38-9a2 2 0 0 0-2-2.3zM7 22H4a2 2 0 0 1-2-2v-7a2 2 0 0 1 2-2h3"></path></symbol>

<symbol id="thumbs-down" viewBox="0 0 24 24" fill="none" stroke="currentColor" stroke-width="2" stroke-linecap="round" stroke-linejoin="round" class="feather feather-thumbs-down"><path d="M10 15v4a3 3 0 0 0 3 3l4-9V2H5.72a2 2 0 0 0-2 1.7l-1.38 9a2 2 0 0 0 2 2.3zm7-13h2.67A2.31 2.31 0 0 1 22 4v7a2.31 2.31 0 0 1-2.33 2H17"></path></symbol>

<symbol id="rotate-ccw" viewBox="0 0 24 24" fill="none" stroke="currentColor" stroke-width="2" stroke-linecap="round" stroke-linejoin="round" class="feather feather-rotate-ccw"><polyline points="1 4 1 10 7 10"></polyline><path d="M3.51 15a9 9 0 1 0 2.13-9.36L1 10"></path></symbol>

<symbol id="arrow-down" viewBox="0 0 24 24" fill="none" stroke="currentColor" stroke-width="2" stroke-linecap="round" stroke-linejoin="round" class="feather feather-arrow-down"><line x1="12" y1="5" x2="12" y2="19"></line><polyline points="19 12 12 19 5 12"></polyline></symbol>

<symbol id="trash-2" viewBox="0 0 24 24" fill="none" stroke="currentColor" stroke-width="2" stroke-linecap="round" stroke-linejoin="round" class="feather feather-trash-2"><polyline points="3 6 5 6 21 6"></polyline><path d="M19 6v14a2 2 0 0 1-2 2H7a2 2 0 0 1-2-2V6m3 0V4a2 2 0 0 1 2-2h4a2 2 0 0 1 2 2v2"></path><line x1="10" y1="11" x2="10" y2="17"></line><line x1="14" y1="11" x2="14" y2="17"></line></symbol>

<symbol id="hand-paper" viewBox="0 0 32 32" xmlns="http://www.w3.org/2000/svg"><path d="M 16 2 C 14.617188 2 13.46875 2.96875 13.125 4.25 C 12.773438 4.105469 12.402344 4 12 4 C 10.355469 4 9 5.355469 9 7 L 9 17.75 L 8.125 16.875 C 6.960938 15.710938 5.039063 15.710938 3.875 16.875 C 2.710938 18.039063 2.710938 19.960938 3.875 21.125 L 10.65625 27.90625 C 11.832031 29.078125 13.457031 30 15.375 30 L 20 30 C 23.855469 30 27 26.855469 27 23 L 27 11 C 27 9.355469 25.644531 8 24 8 C 23.648438 8 23.316406 8.074219 23 8.1875 L 23 7 C 23 5.355469 21.644531 4 20 4 C 19.597656 4 19.226563 4.105469 18.875 4.25 C 18.53125 2.96875 17.382813 2 16 2 Z M 16 4 C 16.566406 4 17 4.433594 17 5 L 17 15 L 19 15 L 19 7 C 19 6.433594 19.433594 6 20 6 C 20.566406 6 21 6.433594 21 7 L 21 15 L 23 15 L 23 11 C 23 10.433594 23.433594 10 24 10 C 24.566406 10 25 10.433594 25 11 L 25 23 C 25 25.773438 22.773438 28 20 28 L 15.375 28 C 14.101563 28 13.007813 27.378906 12.09375 26.46875 L 5.28125 19.71875 C 4.882813 19.320313 4.882813 18.679688 5.28125 18.28125 C 5.679688 17.882813 6.320313 17.882813 6.71875 18.28125 L 9.28125 20.875 L 11 22.59375 L 11 7 C 11 6.433594 11.433594 6 12 6 C 12.566406 6 13 6.433594 13 7 L 13 15 L 15 15 L 15 5 C 15 4.433594 15.433594 4 16 4 Z"/></symbol>

<symbol id="hand-rock" viewBox="0 0 32 32" xmlns="http://www.w3.org/2000/svg"><path d="M 15 6 C 13.9375 6 13.003906 6.5625 12.46875 7.40625 C 12.03125 7.15625 11.535156 7 11 7 C 9.355469 7 8 8.355469 8 10 L 8 13.65625 L 5.90625 16.34375 C 4.628906 17.996094 4.714844 20.367188 6.09375 21.9375 L 8.46875 24.625 C 9.796875 26.136719 11.707031 27 13.71875 27 L 19 27 C 22.855469 27 26 23.855469 26 20 L 26 11 C 26 9.355469 24.644531 8 23 8 C 22.464844 8 21.96875 8.15625 21.53125 8.40625 C 20.996094 7.5625 20.0625 7 19 7 C 18.464844 7 17.96875 7.15625 17.53125 7.40625 C 16.996094 6.5625 16.0625 6 15 6 Z M 15 8 C 15.566406 8 16 8.433594 16 9 L 16 12 L 18 12 L 18 10 C 18 9.433594 18.433594 9 19 9 C 19.566406 9 20 9.433594 20 10 L 20 12 L 22 12 L 22 11 C 22 10.433594 22.433594 10 23 10 C 23.566406 10 24 10.433594 24 11 L 24 20 C 24 22.773438 21.773438 25 19 25 L 13.71875 25 C 12.28125 25 10.917969 24.394531 9.96875 23.3125 L 7.59375 20.59375 C 6.839844 19.734375 6.800781 18.5 7.5 17.59375 L 8 16.9375 L 8 18 L 10 18 L 10 10 C 10 9.433594 10.433594 9 11 9 C 11.566406 9 12 9.433594 12 10 L 12 12 L 14 12 L 14 9 C 14 8.433594 14.433594 8 15 8 Z"/></symbol>

<symbol id="hand-scissors" viewBox="0 0 32 32" xmlns="http://www.w3.org/2000/svg"><path d="M 11.40625 6.96875 C 10.578125 6.953125 9.890625 7.125 9.46875 7.25 C 9.457031 7.25 9.449219 7.25 9.4375 7.25 L 6.9375 8.03125 C 4.003906 8.933594 2 11.652344 2 14.71875 L 2 20 C 2 23.855469 5.144531 27 9 27 L 18.90625 27 C 20.125 27.027344 21.304688 26.3125 21.78125 25.125 C 22.082031 24.371094 22.039063 23.578125 21.75 22.875 C 22.363281 22.550781 22.882813 22.027344 23.15625 21.34375 C 23.46875 20.558594 23.417969 19.722656 23.09375 19 L 27 19 C 28.644531 19 30 17.644531 30 16 C 30 14.355469 28.644531 13 27 13 L 25.46875 13 L 25.875 12.875 C 27.449219 12.398438 28.351563 10.699219 27.875 9.125 C 27.398438 7.550781 25.699219 6.648438 24.125 7.125 L 15.6875 9.71875 C 15.613281 9.53125 15.527344 9.328125 15.40625 9.125 C 14.90625 8.289063 13.894531 7.34375 12.28125 7.0625 C 11.980469 7.011719 11.683594 6.972656 11.40625 6.96875 Z M 25.125 9 C 25.515625 9.042969 25.847656 9.3125 25.96875 9.71875 C 26.132813 10.257813 25.820313 10.804688 25.28125 10.96875 L 18.4375 13.03125 L 18.78125 14.15625 L 18.78125 15 L 27 15 C 27.566406 15 28 15.433594 28 16 C 28 16.566406 27.566406 17 27 17 L 20.40625 17 L 17.78125 15.96875 C 17.402344 15.816406 17.011719 15.742188 16.625 15.75 L 16.09375 11.65625 L 24.71875 9.03125 C 24.855469 8.988281 24.996094 8.984375 25.125 9 Z M 11.375 9.03125 C 11.566406 9.03125 11.765625 9.03125 11.9375 9.0625 C 13.011719 9.25 13.425781 9.71875 13.6875 10.15625 C 13.949219 10.59375 13.96875 10.90625 13.96875 10.90625 C 13.96875 10.925781 13.96875 10.949219 13.96875 10.96875 L 14.8125 17.40625 C 14.820313 17.4375 14.832031 17.46875 14.84375 17.5 C 14.96875 18.027344 14.652344 18.53125 14.125 18.65625 C 13.800781 18.734375 13.636719 18.691406 13.46875 18.59375 C 13.300781 18.496094 13.09375 18.289063 12.9375 17.84375 L 11.6875 13 C 11.609375 12.703125 11.398438 12.460938 11.121094 12.339844 C 10.839844 12.21875 10.519531 12.230469 10.25 12.375 L 8.59375 13.28125 C 8.109375 13.546875 7.933594 14.15625 8.203125 14.640625 C 8.46875 15.125 9.078125 15.300781 9.5625 15.03125 L 10.0625 14.75 L 11.03125 18.4375 C 11.039063 18.46875 11.050781 18.5 11.0625 18.53125 C 11.332031 19.304688 11.792969 19.925781 12.4375 20.3125 C 12.964844 20.628906 13.578125 20.75 14.1875 20.6875 C 13.871094 20.980469 13.609375 21.355469 13.4375 21.78125 C 12.980469 22.925781 13.269531 24.183594 14.09375 25 L 9 25 C 6.226563 25 4 22.773438 4 20 L 4 14.71875 C 4 12.519531 5.429688 10.585938 7.53125 9.9375 L 10.03125 9.1875 C 10.234375 9.125 10.804688 9.03125 11.375 9.03125 Z M 16.8125 17.78125 C 16.886719 17.792969 16.957031 17.78125 17.03125 17.8125 L 20.75 19.3125 C 21.273438 19.523438 21.523438 20.070313 21.3125 20.59375 C 21.101563 21.117188 20.523438 21.367188 20 21.15625 L 16.28125 19.6875 C 16.226563 19.667969 16.203125 19.621094 16.15625 19.59375 C 16.550781 19.085938 16.804688 18.445313 16.8125 17.78125 Z M 16.1875 21.90625 C 16.320313 21.90625 16.460938 21.917969 16.59375 21.96875 L 17.9375 22.5 L 19.25 23.03125 L 19.375 23.0625 C 19.898438 23.273438 20.148438 23.851563 19.9375 24.375 C 19.785156 24.757813 19.445313 24.980469 19.0625 25 C 19.050781 25 19.042969 25 19.03125 25 C 18.898438 25.003906 18.757813 24.988281 18.625 24.9375 L 15.84375 23.8125 C 15.320313 23.601563 15.070313 23.023438 15.28125 22.5 C 15.386719 22.238281 15.578125 22.070313 15.8125 21.96875 C 15.929688 21.917969 16.054688 21.90625 16.1875 21.90625 Z"/></symbol>

<symbol id="github" viewBox="0 0 24 24" fill="none" stroke="currentColor" stroke-width="2" stroke-linecap="round" stroke-linejoin="round" class="feather feather-github"><path d="M9 19c-5 1.5-5-2.5-7-3m14 6v-3.87a3.37 3.37 0 0 0-.94-2.61c3.14-.35 6.44-1.54 6.44-7A5.44 5.44 0 0 0 20 4.77 5.07 5.07 0 0 0 19.91 1S18.73.65 16 2.48a13.38 13.38 0 0 0-7 0C6.27.65 5.09 1 5.09 1A5.07 5.07 0 0 0 5 4.77a5.44 5.44 0 0 0-1.5 3.78c0 5.42 3.3 6.61 6.44 7A3.37 3.37 0 0 0 9 18.13V22"></path></symbol>

<symbol id="globe" viewBox="0 0 24 24" fill="none" stroke="currentColor" stroke-width="2" stroke-linecap="round" stroke-linejoin="round" class="feather feather-globe"><circle cx="12" cy="12" r="10"></circle><line x1="2" y1="12" x2="22" y2="12"></line><path d="M12 2a15.3 15.3 0 0 1 4 10 15.3 15.3 0 0 1-4 10 15.3 15.3 0 0 1-4-10 15.3 15.3 0 0 1 4-10z"></path></symbol>
</svg>
